<svg fill="none" height="53" viewBox="0 0 290 53" width="290" xmlns="http://www.w3.org/2000/svg"><g clip-rule="evenodd" fill="#1d1d1d" fill-rule="evenodd"><path d="m37.8813.280029h.12c1.1783 2.648431.5319 6.071021-.7224 7.898581-1.0512 1.53043-2.3985 2.51079-4.0376 3.35149-.5423.2783-1.1292.5243-1.6265.8974v33.4498c2.382-2.7429 4.4223-6.6559 4.5794-11.6089.5829.0402 1.3248-.079 1.8071.0601-.7169 8.3841-4.0585 14.6717-10.9053 16.8148-3.8179 1.195-8.7215.718-12.2908-.2991-7.09396-2.0209-11.79593-6.9764-13.37642-14.4213-.841533-3.9647-.508823-8.5401.78349-12.0874 2.28744-6.2797 7.86143-11.8508 17.11133-9.7539-2.4826 1.1845-4.7861 2.8665-5.8442 5.266 3.0234-2.4467 8.7425-2.6271 11.8089-4.9068.4653-.3463 1.2098-.8929 1.1448-1.3764-2.5051-.0223-4.7936-.8089-6.989-1.4961-2.2033-.6897-4.3472-1.4027-6.6882-1.915-2.6076-.56998-5.19525-.63507-7.22954.4188-1.84366.9561-3.08094 2.8139-2.16937 5.8042-.75497-.4566-1.25429-1.2208-1.62702-2.0342-1.445915-3.1558.75497-6.48398 2.28994-8.25739 2.2089-2.55253 5.88972-4.38158 10.78529-4.60817 4.7845-.22062 9.3249 1.1354 13.0137 2.39403 1.9317.65887 4.3978 1.25365 6.4476.53863 2.0368-.71155 2.9574-2.11726 3.6148-4.129171zm-9.8212 10.232471c-2.6337.2688-5.3744-.2782-7.5918-1.01713-2.1454-.71552-4.4978-1.3585-6.9889-1.73564-2.5271-.3826-5.59305-.44521-7.23008.89788 5.98528-1.68943 11.20758 1.58759 16.20768 2.87249 4.7295 1.2149 10.0649-.0655 12.2308-3.11199-1.8467.99577-4.0756 1.83349-6.6277 2.09439zm-.723 2.9322v23.8155c0 1.1304.2247 2.6022 0 3.4111-.1921.6937-1.5324 1.3451-2.2899 1.7352-2.8473 1.4693-5.8237 2.3696-8.8561 3.4111 1.7516 3.4539 9.8572 4.2897 13.5555 1.6755v-34.5274h-.1195c-.7285.1942-1.4229.4228-2.29.479zm-24.58249 19.5675c.43428 6.7031 3.51872 11.6223 7.71239 14.3612-3.02893-3.1269-5.88874-8.1619-6.32651-14.3612-.48831-6.9202 1.81964-12.1733 5.2413-15.4985-4.34324 2.4293-7.06245 8.7836-6.62718 15.4985zm15.78549-13.6436v23.8761c.4137-.0283.6179-.2643 1.0241-.2996-.04-7.9383.0811-16.0362-.0595-23.8751-.3147.1068-.5994.242-.9646.2986zm-5.0007 2.8124c-2.2889 2.4835-2.5146 7.2313-2.0483 11.6089.4468 4.1987 1.4424 8.5137 3.4942 10.5917.6259-.1968 1.3329-.312 1.8077-.6584v-23.6361c-1.1448.32-2.4136 1.1831-3.2536 2.0939z"/><path d="m48.2443 6.56273c.6064-.83329 1.1608-1.71875 1.7471-2.57241.5784.26335 1.1087.57441 1.5065 1.01714-.8616 1.33863-1.6991 2.70011-2.5306 4.06905v14.54099c2.1658-2.0581 4.3517-4.6141 6.2059-7.181 2.8428.9669 5.0892 2.5257 6.1459 5.2655.6699-1.1885 1.1552-2.5619 1.7471-3.8295.6204.2618 1.2127.5515 1.8076.8382-.4613.9769-.9851 2.0274-1.5065 3.1712-.4602 1.0102-1.1687 2.2191-1.3253 3.351-.1786 1.289 0 2.8015 0 4.1888v12.5063c.8681-.235 1.2733-1.4484 1.506-2.5133.5698.1923 1.0806.4423 1.6875.5988-1.1502 4.9421-5.3463 6.8581-6.1458 12.147-1.4845-.4542-2.5491-1.435-3.6754-2.4531-1.1137-1.0073-2.5165-2.3374-2.7117-4.0696-.1691-1.5026 0-3.2025 0-4.8467v-9.6337c0-1.5265.2977-3.5602-.06-4.7274-.5168-1.6875-3.4217-1.2617-3.6753.5982-.2016 1.4778 0 2.9366 0 4.3086v8.6166c0 1.4683-.2327 3.1522 0 4.3085.2521 1.2527 1.7366 1.9061 2.8918 2.3339-3.179.9113-5.4434 2.7319-6.7477 5.5051-1.6201-2.241-3.7444-3.9806-6.2055-5.3853.2022-.4761 1.1533-1.0917 1.2648-1.8554.1857-1.2736 0-2.8482 0-4.3081v-27.7057c0-.2986.1521-1.6536-.3617-1.7351-.7635-.1218-.8635 1.3023-1.0847 1.914-.7194-.0631-1.3568-.2077-1.9882-.3588.6599-1.4037.6214-2.83522 1.3263-4.00937.3768-.62857 1.0352-1.1667 1.5055-1.79477.4643-.61863.8935-1.29242 1.3258-1.91453.9166-1.32123 1.9767-2.63353 2.5306-4.188797 2.1644 1.380367 3.9065 3.180607 4.82 5.803697zm-3.7358 40.39187c-.3412-.2882-1.3304-.9372-1.4459-1.3168-.1421-.4651 0-1.4345 0-2.2136v-29.262c0-1.3779.2671-3.4812-.0596-4.48744-.3777-1.15875-3.0844-2.10036-3.194-.17937.2947-.04771.8445-.19628 1.2658-.05963 1.2258.39552.783 3.14434.783 5.02654v26.4491c0 1.5239.1911 3.1209 0 4.4273-.06.4074-.1511.5158-.4223.8377 1.2899.9541 2.4261 2.0597 3.6759 3.0524.2841-.3761.6334-.6872.9035-1.0772-.4037-.3319-.9196-.7016-1.5064-1.197zm7.0494-23.098c1.0427.1768 2.431.8129 2.7112 1.915.3157 1.2387.0606 3.3123.0606 5.0265v9.8136c0 1.7625-.2282 3.5871 0 4.9665.1601.9674 1.0021 1.8926 1.5669 2.5133.6595.7259 1.3599 1.4151 2.289 1.8554.0875-.5118.3402-.8592.4828-1.3163-1.1602-.7478-2.6972-1.8003-2.9529-3.3511-.2251-1.3649 0-3.1935 0-4.9674v-9.9925c0-1.7982.2002-3.6084 0-5.0265-.1911-1.3551-1.9962-2.3295-3.2535-2.6331-.2857.3394-.9761.8989-.9041 1.1966z"/><path d="m145.61 1.89575c.536 5.79874-3.028 8.55995-8.434 8.85565-.141 11.2501-.021 22.7596-.061 34.1087 3.236-2.1511 5.941-5.3501 6.628-10.2325.629.0333 1.125.1997 1.687.2996-.4 4.484-1.926 7.8489-4.218 10.472-2.265 2.5923-5.32 4.6365-9.158 5.5647-4.444 1.0753-9.144.5058-12.653-1.0176-6.455-2.802-10.998-8.9988-12.472-16.8745-.818-4.3742-.31-9.2258 1.024-12.9257 1.835-5.0877 5.455-9.2173 10.364-11.66801 1.626-.81242 3.588-1.5995 5.603-1.73565 2.574-.17441 4.694.30361 6.086 1.43602-4.477.42137-7.252 2.53164-9.099 5.56574 5.601-1.7864 10.003-4.54661 13.196-8.97641.404-.56149 1.013-1.49366 1.506-1.61589.997-.24795 2.394.20472 3.374.35975 1.107.17391 2.298.45316 3.374.35875 1.364-.12024 2.506-.99229 3.253-1.97465zm-11.929 6.40296c-.11.43677-.679.71155-.663 1.07677 2.07.18136 4.735.23751 6.507-.2395-2.168-.06112-4.102-.35379-5.844-.83727zm-1.326 2.51229c-.03 8.7538.176 17.5696 0 26.2707-3.066 2.1595-7.379 3.0832-12.291 3.4107 1.206 2.4879 3.099 4.7602 5.784 5.9836 2.855 1.3008 6.948 1.3466 9.339-.4785v-35.1865c-.997.0139-1.831-.1356-2.771-.1789-.07.01-.066.0944-.061.1789zm-23.558 18.0725c0 8.2852 3.617 14.0755 8.435 17.4126-3.774-3.9791-6.596-9.832-6.748-17.4732-.156-7.8425 2.572-13.8743 6.507-17.6521-4.893 3.4732-8.194 9.4727-8.194 17.7127zm15.485-14.6608c-.296.1058-.95.3731-1.266.6583v23.6959c.519-.004.898-.1456 1.266-.2992zm-6.206 6.9406c-1.203 5.6278-.857 13.6576 1.265 17.7728.645-.0576 1.384-.0213 1.988-.1192-.04-7.7401.081-15.6382-.06-23.278-1.932 1.121-2.631 2.9928-3.193 5.6244z"/><path d="m229.963 3.75024c1.591 2.29016 3.612 4.15199 5.965 5.68538-2.35 1.11698-3.74 3.18658-5.303 5.08618-1.552-2.3871-3.666-4.2171-6.265-5.56518 2.379-1.22731 4.503-2.70803 5.603-5.20638zm-1.928 4.72788c-.211.22857-.449.43229-.784.53863 1.074.98785 2.221 1.90355 3.193 2.99125.145-.3543.454-.5466.664-.8372-1.024-.8984-1.856-1.9871-3.073-2.69268z"/><path d="m89.9389 24.9934c-3.8434 1.4921-7.4022 3.2973-10.4236 5.8047-.9981.8278-2.0628 1.7585-2.5306 2.8715-.7439 1.7714-.3222 4.3627.1811 5.6854.6955 1.8301 2.1519 3.5777 4.4583 3.5901 3.2306.0174 5.4335-2.5029 6.3866-5.1458.4963.0661.87.2534 1.3858.2991-.7104 3.0564-2.0077 5.1498-3.9164 6.9411-.6169.5794-1.3504 1.0211-1.9277 1.676-1.1393 1.2894-1.6631 3.0201-1.6871 5.3252-6.0573-.7463-10.4836-3.112-13.1348-7.2397-.2526.8268-.6844 1.4738-1.0241 2.2136-.5399-.3021-1.0427-.6405-1.567-.9575.5433-1.2974 1.4249-2.4541 1.567-4.069.1541-1.759 0-3.6606 0-5.5657v-16.6941c6.333.2435 11.8549-.8313 15.062-3.8897 2.3044 3.0972 4.6904 6.4313 7.1705 9.1548zm-11.3272-4.8472c-.4022.0999-.6669.3354-1.1447.3592 1.512 2.0885 3.193 4.0095 4.759 6.0437.4103-.1714.836-.3269 1.1457-.5982-1.6385-1.8832-3.0659-3.9767-4.76-5.8047zm-9.2188 1.4365v15.1994c0 1.7332-.1826 3.5076 0 5.0857.2627 2.2718 2.6927 4.3558 4.2182 5.5056 1.8277 1.3779 3.8124 2.4755 6.6272 2.7528.0335-.4462.0895-.8686.1806-1.2572-2.8923-.2221-4.8205-1.3749-6.6277-2.9316-1.2948-1.116-2.9143-2.8582-3.133-4.7275-.1816-1.5547 0-3.2785 0-4.9068v-14.8998h-1.2047c-.0701.01-.0656.0944-.0606.1794zm7.4112 8.9759c1.0312-1.1106 2.5381-2.2664 3.9765-3.1712-1.3483-1.6532-2.6051-3.3963-3.9765-5.0266z"/><path d="m262.981 25.0535c-2.414.7478-4.885 2.1108-7.23 3.5304-2.185 1.3228-4.691 2.9074-5.664 5.0266-.371.8095-.442 2.4741-.361 3.5906.2 2.7792 1.921 5.5717 4.699 5.7441 1.838.1138 3.242-.7751 4.278-1.6154 1.141-.9252 1.938-2.0164 2.35-3.5304.501.082.986.1774 1.387.3587-.678 3.0222-1.976 5.0863-3.857 6.8219-1.849 1.7059-3.916 3.3148-3.615 7.061-6.017-.7663-10.537-3.0197-13.074-7.2403-.396.6847-.703 1.4574-1.085 2.154-.513-.0939-1.061-.6584-1.627-.8974.531-1.1891 1.404-2.3255 1.566-3.7699.199-1.77 0-3.7501 0-5.685 0-5.4828 0-11.4615 0-16.8747 6.403.3533 11.879-1.0474 15.183-3.7699 1.698 2.3165 3.467 4.6937 5.303 6.9416.596.7305 1.229 1.4162 1.747 2.1541zm-11.207-4.9069c-.44.081-.744.2981-1.205.3588 1.52 2.1023 3.143 4.1004 4.82 6.0442.298-.2037.643-.3592 1.024-.479-1.442-2.0785-3.106-3.9359-4.639-5.924zm-9.279 1.436v15.3194c0 1.7133-.236 3.5409 0 5.1458.157 1.0569.989 2.1307 1.688 2.9924 2.204 2.721 4.992 4.4392 9.098 5.0862.1-.399.082-.9158.241-1.2566-.411-.0035-1.003-.0214-1.447-.1198-3.26-.7215-6.488-3.2646-7.832-6.0443-.776-1.6029-.542-4.1356-.542-6.5824v-14.72h-1.145c-.071.0099-.066.0944-.061.1793zm7.351 8.976c1.078-1.0842 2.551-2.2937 4.037-3.1717-1.394-1.6472-2.653-3.4281-4.037-5.0862z"/><path d="m160.734 16.4368c3.438.6146 5.909 2.1893 7.592 4.5475.827-.9336 1.815-1.7078 2.59-2.6931.508.4541.99.9326 1.447 1.437-.66.8859-1.411 1.6477-2.17 2.633-.616.8005-1.625 2.0005-1.807 2.9913-.149.809 0 1.8166 0 2.7528v19.268c-2.707-.0313-5.078.3637-7.23 1.197-2.022.7821-3.731 1.843-4.519 3.6502-3.955-1.0191-6.711-3.2288-8.797-6.1039-.416.7633-.875 1.4848-1.386 2.1546-.621-.2216-.976-.7066-1.566-.958.737-1.2224 1.498-2.4219 2.109-3.7695v-23.337c5.576-.0283 10.162-1.5568 13.737-3.7699zm-3.012 3.6496c1.267 1.3943 3.238 3.0187 3.495 5.5056.168 1.6328-.001 3.4907 0 5.2656 0 5.281-.001 10.8943 0 15.9771.46-.0617.798-.2435 1.265-.2992v-15.977c0-1.843.187-3.7168 0-5.3854-.279-2.4725-2.216-4.1296-3.555-5.5652-.368.1938-.789.3335-1.205.4785zm1.807 10.9511c0-1.8097.225-4.003-.06-5.3854-.422-2.0482-2.023-3.6904-3.555-4.6678-.004-.0367-.009-.071-.06-.0601v16.3358c0 1.61-.298 4.011.06 5.3859.283 1.0852 1.761 2.1455 2.591 2.7527.342.251.671.5918 1.024.5382 0-4.6241 0-10.1317 0-14.8993zm-10.785-9.2755v16.5758c0 2.0069-.308 4.9212.242 6.2832 1.099 2.726 4.283 4.3553 6.748 5.6248.215-.2936.778-.5316.782-.8377-1.466-.5213-2.682-1.37-3.795-2.2743-1.019-.8273-2.368-2.005-2.652-3.4107-.305-1.513-.059-3.7699-.06-5.6248 0-5.4156.099-11.3913-.12-16.396-.291.1103-.763.0403-1.145.0597z"/><path d="m223.276 23.7966c-2.008 2.1759-3.932 4.4313-5.483 7.0609-1.034-1.9175-2.66-3.9826-4.88-4.6673-1.122-.3459-2.39-.011-2.592 1.0767-.165.8979 0 2.0497 0 3.1121v3.0514c.001 2.1665-.246 4.3926 0 6.1039.253 1.7604 2.381 3.5637 4.158 3.7699 3.628.4209 5.345-3.0077 6.507-5.1463.785.3175 1.46.7448 2.17 1.1369-.918 2.6812-2.414 4.4645-4.279 6.1634-1.848 1.686-3.296 3.6204-3.675 6.7622-6.673.2843-10.473-2.2842-13.255-5.8653-.579.8626-1.029 1.8509-1.447 2.8735-.646-.3155-1.248-.6742-1.807-1.0777.297-1.2283 1.631-2.3931 1.868-3.8296.222-1.3471 0-3.0266 0-4.6077v-11.4891c0-.6718.168-1.4674-.241-2.0343-.779.3031-.818 1.3421-1.085 2.1545-.688-.2147-1.415-.3901-2.109-.5987.423-1.6527.795-2.8612 1.567-3.9494 1.616-2.2762 4.524-3.3992 4.76-7.1209 3.764.63 6.038 2.7398 6.748 6.4029 2.841-1.5672 4.726-4.0824 6.688-6.5227 1.539 2.9998 3.501 5.5791 6.387 7.2407zm-17.112 22.9188c-1.146-.9819-2.491-2.5963-2.651-4.1894-.258-2.5515 0-5.7421 0-8.796v-4.4283c0-1.442.272-3.3207-.06-4.3682-.234-.7364-.986-1.0966-1.808-1.3764-.334.0472-.682.5983-.904.9576.713.1848 1.255.3632 1.446.9575.356 1.1036.061 3.027.061 4.3682v8.9758c0 1.5225-.178 3.1469 0 4.488.32 2.4209 2.712 4.2976 4.459 5.3858 1.964 1.2234 4.032 2.1014 7.049 2.0343.129-.3901.194-.8437.361-1.197-3.517-.1093-6.096-1.2234-7.953-2.8119zm6.146-22.3205c2.345.4636 4.055 1.5578 5.302 3.1115.252-.5674.73-.9108 1.025-1.436-1.361-1.2323-3.861-2.2991-6.327-1.6755z"/><path d="m289.431 23.8561c-2.161 2.0422-3.888 4.5158-5.603 7.0012-.946-2.0765-2.747-4.1316-5.062-4.7274-1.205-.3101-2.202.2186-2.349 1.3167-.223 1.6716 0 3.8231 0 6.0437 0 2.1764-.228 4.4075 0 5.9841.264 1.8266 2.38 3.6253 4.217 3.8295 3.688.4095 5.221-2.9927 6.508-5.1458.765.3369 1.442.7623 2.169 1.1369-.846 1.7481-1.485 3.3461-2.651 4.6668-1.066 1.207-2.41 2.1287-3.435 3.4112-1.031 1.2909-1.53 2.7681-1.928 4.8471-6.628.2604-10.469-2.2479-13.194-5.8643-.648.812-1.024 1.8952-1.506 2.8731-.647-.2962-1.162-.7225-1.808-1.0182.271-1.1503 1.635-2.4944 1.867-3.7699.244-1.3421 0-3.041 0-4.6072 0-3.7917 0-7.664 0-11.4891 0-.6911.147-1.4752-.18-2.0944-.753.0731-.885 1.2731-1.084 2.0944-.696-.2077-1.428-.3776-2.109-.5987.423-1.7714.8-3.0609 1.687-4.1883 1.66-2.1148 4.368-3.2477 4.578-6.882 3.809.6062 6.039 2.7791 6.809 6.403 2.781-1.606 4.719-4.0497 6.628-6.5227 1.58 2.9982 3.569 5.5895 6.446 7.3003zm-16.087 23.6371c-1.596-1.0618-3.538-2.8685-3.736-5.2069-.234-2.803.001-5.7321 0-8.6171 0-2.8765.001-5.753 0-8.6762-.377-.7215-.963-1.2378-1.867-1.4355-.26.1008-.711.5297-.844.957 2.139.1078 1.506 3.2328 1.506 5.4449v8.9759c0 1.5423-.203 3.2114 0 4.548.196 1.282 1.241 2.5948 2.109 3.4713 2.183 2.2022 5.04 3.6531 9.399 3.7699.072-.4288.184-.8154.303-1.1975-2.869-.0795-5.028-.8094-6.87-2.0338zm5.062-23.0985c2.348.4602 4.093 1.5195 5.301 3.1116.267-.5526.765-.8765 1.025-1.436-1.343-1.2552-3.868-2.2857-6.326-1.6756z"/><path d="m186.16 25.2327c-.905.1803-.969 1.7088-1.264 2.6926-.583-.1396-1.077-.3672-1.627-.5386.135-2.6613 1.267-4.0526 2.65-5.5051 1.325-1.3912 2.314-3.0235 3.254-4.8471 1.381.4671 2.478 1.2924 3.494 2.1545.912.7727 2.211 1.9215 2.411 3.2313.234 1.5428-.001 3.3634 0 5.0861 0 4.1262-.001 8.4045 0 12.5669 0 .7652-.178 1.607.24 2.2733 1.228-.0174 1.663-.8219 1.928-1.7948.605.1183 1.245.1993 1.808.3588-1 4.8119-5.543 6.1043-6.206 11.2496-3.878-.7558-6.192-3.0648-6.748-7.1205-2.744 1.602-5.084 4.1262-6.809 6.9411-2.747-.8407-4.248-2.9212-5.181-5.5647-.475.7449-.951 1.4887-1.386 2.2738-.671-.2509-1.098-.7444-1.687-1.0773.468-.721.915-1.5716 1.446-2.4536.463-.7692 1.124-1.6457 1.266-2.5729.199-1.3138 0-2.8765 0-4.3682-.001-4.1634.049-8.8451-.061-12.8655-.91.1789-1.122 1.5538-1.385 2.5729-.597-.1451-1.083-.401-1.628-.5982 1.094-4.3592 4.513-6.4089 6.026-10.3522 2.62.8968 5.552 2.6141 5.904 5.7445.17 1.5056.001 3.1975 0 4.8472 0 3.9527.001 7.8727 0 11.9676 0 .8154-.134 1.7461 0 2.394.385 1.8554 3.361 1.199 3.676-.1799.241-1.0539 0-3.0181 0-4.1888 0-4.1073.1-8.3611-.121-12.3268zm.663-1.5558c1.441.2499 1.145 1.6363 1.145 3.351v12.4467c0 1.7947-.151 3.5835 0 5.0265.273 2.6221 1.815 4.3011 3.675 5.4449.146-.473.301-.9381.542-1.3162-1.576-.6634-2.778-2.4124-2.952-4.488-.23-2.7522 0-6.3915 0-9.9333v-4.9669c0-1.8047.198-3.6025 0-4.9664-.108-.7454-.939-1.1553-1.506-1.5558-.301.319-.695.5466-.904.9575zm-12.472.2395c1.368.2654 1.085 1.7332 1.085 3.3505v12.8655c0 1.8385-.203 3.6949 0 5.1468.263 1.8937 1.831 3.2199 3.012 4.3081.375-.2654.651-.6301.904-1.0177-1.007-.9689-2.437-2.152-2.651-3.8891-.179-1.4405 0-3.1667 0-4.9068v-9.9334c0-2.9644.514-6.1033-1.447-6.941-.358.2822-.665.6146-.903 1.0171z"/><path d="m234.422 21.1035c.607-.5933.962-1.4375 1.627-1.9741.461.3389.91.6906 1.445.957-.376.7384-.972 1.4897-1.506 2.3339-.469.7433-1.128 1.6864-1.265 2.5128-.186 1.1254 0 2.4934 0 4.0695v8.1381c0 1.7157-.5 5.0807 1.024 5.1463 1.067.0457 1.439-1.3208 1.446-2.1546.637.1272 1.173.3523 1.808.479-.325 2.6763-1.845 4.3478-3.434 5.8047-1.659 1.5205-2.711 3.2959-3.374 5.8638-3.105-.9446-5.092-3.0027-6.086-6.0442-.929.7528-1.616 1.7466-2.229 2.8129-.598-.2444-1.009-.6732-1.566-.9575.73-1.9075 2.245-3.035 3.554-4.3681v-15.7375c0-.6763.164-1.4311-.241-1.9752-.673.4293-.63 1.5692-.783 2.5138-.641-.0621-1.239-.1655-1.869-.24.256-1.8236.578-3.5016 1.568-4.6668.449-.5297 1.017-.9148 1.445-1.3769 1.419-1.5255 2.483-3.1269 3.615-5.1458 2.028.9188 3.777 2.1143 4.821 4.0089zm-7.893 3.2909c1.318.3717 1.025 1.9086 1.025 3.5911v12.5663c0 1.8365-.221 4.0238.059 5.2656.442 1.9622 2.104 3.275 3.556 4.308.105-.473.329-.8288.482-1.2561-1.076-.8795-2.584-2.0432-2.832-3.7103-.215-1.4375 0-3.3227 0-5.1458 0-3.5195 0-6.7269 0-10.2926 0-2.4507.556-5.7664-1.447-6.2231-.338.242-.572.5874-.843.8969z"/></g></svg>